<svg xmlns="http://www.w3.org/2000/svg" xmlns:xlink="http://www.w3.org/1999/xlink" width="736" height="849" version="1.1" viewBox="0 0 736 849"><defs><linearGradient id="linearGradient-1" x1="57.553%" x2="36.431%" y1="46.024%" y2="32.74%"><stop offset="0%" stop-color="#FDB7F0" stop-opacity="0"/><stop offset="100%" stop-color="#F900C3"/></linearGradient></defs><g id="Great-Tables" fill="none" fill-rule="evenodd" stroke="none" stroke-width="1"><g id="GT_hex_logo" transform="translate(0.837612, 0.250000)"><polygon id="hex_outline" fill="#F900C3" points="725.106 631.823 367.4 838.342 9.694 631.823 9.694 218.677 367.4 12.158 725.106 218.677"/><path id="hex_outline" fill="#BF0096" d="M367.4,0 L427.7,34.8 L705.5,195.2 L734.8,212.1 L734.8,636.4 L705.5,653.3 L424.3,815.7 L367.4,848.5 L310.5,815.7 L29.3,653.3 L0,636.4 L0,212.1 L29.3,195.2 L307.1,34.8 L367.4,0 Z M367.4,12.1578125 L9.69358793,218.677457 L9.69358793,631.822543 L367.4,838.342187 L725.106412,631.822543 L725.106412,218.677457 L367.4,12.1578125 Z"/><g id="great_tables_icon_square-copy-8" transform="translate(97.890455, 193.250000)"><polygon id="polygon_outer" fill="#FFF" stroke="#F900C3" stroke-width="10" points="270.452 0 539.019 178.469 432.48 536 106.256 536 0 180.228" transform="translate(269.509545, 268.000000) rotate(-180.000000) translate(-269.509545, -268.000000)"/><polygon id="polygon_inner" fill="url(#linearGradient-1)" points="510.412 36.161 371.834 499.915 279.335 189.698" opacity=".657" transform="translate(394.873777, 268.037860) rotate(-180.000000) translate(-394.873777, -268.037860)"/><polygon id="G" fill="#F900C3" fill-rule="nonzero" points="223.288 174.907 155.152 174.907 144.627 211.767 171.217 211.767 127.13 365.267 71.339 333.781 154.16 58.337 209.743 58.337 200.326 92.295 242.854 92.295 262.685 25.939 124.549 25.954 28.531 347.441 151.316 429.318"/><polygon id="T" fill="#F900C3" fill-rule="nonzero" points="412.631 26.109 279.066 26.109 268.072 59.404 314.57 59.404 197.332 459.643 236.885 486.132 361.067 59.404 402.737 59.404"/></g></g></g></svg>