<svg xmlns="http://www.w3.org/2000/svg" width="720" height="244" font-family="ui-monospace,Menlo,monospace" font-size="12"><rect width="720" height="244" fill="#13151a" rx="10"/><text x="14" y="20" fill="#f3f4f6" font-weight="700">Trace · chat(&quot;…what should I pack?&quot;)</text><text x="706" y="20" fill="#7d8696" text-anchor="end">total 2.80s · 7 spans</text><line x1="14" x2="706" y1="26" y2="26" stroke="#262a33"/><line x1="258" x2="258" y1="32" y2="230" stroke="#1f232b"/><text x="262" y="44" fill="#616b7a" font-size="10">0s</text><line x1="400" x2="400" y1="32" y2="230" stroke="#1f232b"/><text x="404" y="44" fill="#616b7a" font-size="10">1s</text><line x1="543" x2="543" y1="32" y2="230" stroke="#1f232b"/><text x="547" y="44" fill="#616b7a" font-size="10">2s</text><rect width="40" height="16" x="14" y="53" fill="#8b5cf6" rx="4"/><text x="34" y="65" fill="#0b0b0b" font-size="9" font-weight="700" text-anchor="middle">AGENT</text><text x="62" y="65" fill="#cdd3df">invoke_agent</text><rect width="398" height="14" x="258" y="54" fill="#1d2128" rx="3"/><rect width="398" height="14" x="258" y="54" fill="#8b5cf6" rx="3"/><text x="706" y="65" fill="#7d8696" text-anchor="end">2.80s</text><rect width="40" height="16" x="14" y="79" fill="#3b82f6" rx="4"/><text x="34" y="91" fill="#0b0b0b" font-size="9" font-weight="700" text-anchor="middle">CHAT</text><text x="74" y="91" fill="#cdd3df">chat gpt-4o</text><rect width="398" height="14" x="258" y="80" fill="#1d2128" rx="3"/><rect width="213.4" height="14" x="258" y="80" fill="#3b82f6" rx="3"/><text x="706" y="91" fill="#7d8696" text-anchor="end">1.50s</text><rect width="40" height="16" x="14" y="105" fill="#9ca3af" rx="4"/><text x="34" y="117" fill="#0b0b0b" font-size="9" font-weight="700" text-anchor="middle">HTTP</text><text x="86" y="117" fill="#cdd3df"><tspan fill="#4b5564">└ </tspan>POST /v1/responses</text><rect width="398" height="14" x="258" y="106" fill="#1d2128" rx="3"/><rect width="54.8" height="14" x="284.1" y="106" fill="#9ca3af" rx="3"/><text x="706" y="117" fill="#7d8696" text-anchor="end">0.38s</text><rect width="40" height="16" x="14" y="131" fill="#10b981" rx="4"/><text x="34" y="143" fill="#0b0b0b" font-size="9" font-weight="700" text-anchor="middle">TOOL</text><text x="74" y="143" fill="#cdd3df">execute_tool get_weather</text><rect width="398" height="14" x="258" y="132" fill="#1d2128" rx="3"/><rect width="44" height="14" x="471.4" y="132" fill="#10b981" rx="3"/><text x="706" y="143" fill="#7d8696" text-anchor="end">0.31s</text><rect width="40" height="16" x="14" y="157" fill="#9ca3af" rx="4"/><text x="34" y="169" fill="#0b0b0b" font-size="9" font-weight="700" text-anchor="middle">SPAN</text><text x="86" y="169" fill="#cdd3df"><tspan fill="#4b5564">└ </tspan>fetch_forecast</text><rect width="398" height="14" x="258" y="158" fill="#1d2128" rx="3"/><rect width="43.9" height="14" x="471.4" y="158" fill="#9ca3af" rx="3"/><text x="706" y="169" fill="#7d8696" text-anchor="end">0.31s</text><rect width="40" height="16" x="14" y="183" fill="#3b82f6" rx="4"/><text x="34" y="195" fill="#0b0b0b" font-size="9" font-weight="700" text-anchor="middle">CHAT</text><text x="74" y="195" fill="#cdd3df">chat gpt-4o</text><rect width="398" height="14" x="258" y="184" fill="#1d2128" rx="3"/><rect width="140.6" height="14" x="515.4" y="184" fill="#3b82f6" rx="3"/><text x="706" y="195" fill="#7d8696" text-anchor="end">0.99s</text><rect width="40" height="16" x="14" y="209" fill="#9ca3af" rx="4"/><text x="34" y="221" fill="#0b0b0b" font-size="9" font-weight="700" text-anchor="middle">HTTP</text><text x="86" y="221" fill="#cdd3df"><tspan fill="#4b5564">└ </tspan>POST /v1/responses</text><rect width="398" height="14" x="258" y="210" fill="#1d2128" rx="3"/><rect width="32.9" height="14" x="516" y="210" fill="#9ca3af" rx="3"/><text x="706" y="221" fill="#7d8696" text-anchor="end">0.23s</text></svg>